<mxfile host="app.diagrams.net" modified="2024-05-08T03:49:56.751Z" agent="Mozilla/5.0 (Windows NT 10.0; Win64; x64) AppleWebKit/537.36 (KHTML, like Gecko) Chrome/124.0.0.0 Safari/537.36" etag="hwmC9_uTp0Ng18EKpiD0" version="24.3.1" type="github">
  <diagram name="Page-1" id="5f0bae14-7c28-e335-631c-24af17079c00">
    <mxGraphModel dx="1956" dy="947" grid="1" gridSize="10" guides="1" tooltips="1" connect="1" arrows="1" fold="1" page="1" pageScale="1" pageWidth="1100" pageHeight="850" background="none" math="0" shadow="0">
      <root>
        <mxCell id="0" />
        <mxCell id="1" parent="0" />
        <mxCell id="OlhHN_0VN0b6HMNaHokt-214" value="" style="rounded=0;orthogonalLoop=1;jettySize=auto;html=1;endArrow=oval;endFill=0;sketch=0;sourcePerimeterSpacing=0;targetPerimeterSpacing=0;endSize=10;exitX=0.5;exitY=0.5;exitDx=0;exitDy=0;exitPerimeter=0;" edge="1" target="OlhHN_0VN0b6HMNaHokt-215" parent="1" source="OlhHN_0VN0b6HMNaHokt-149">
          <mxGeometry relative="1" as="geometry">
            <mxPoint x="1316" y="360" as="sourcePoint" />
          </mxGeometry>
        </mxCell>
        <mxCell id="OlhHN_0VN0b6HMNaHokt-168" value="" style="html=1;dropTarget=0;whiteSpace=wrap;fillColor=none;" vertex="1" parent="1">
          <mxGeometry x="460" y="350" width="190" height="131.28" as="geometry" />
        </mxCell>
        <mxCell id="OlhHN_0VN0b6HMNaHokt-169" value="" style="shape=module;jettyWidth=8;jettyHeight=4;" vertex="1" parent="OlhHN_0VN0b6HMNaHokt-168">
          <mxGeometry x="1" width="20" height="20" relative="1" as="geometry">
            <mxPoint x="-27" y="7" as="offset" />
          </mxGeometry>
        </mxCell>
        <mxCell id="OlhHN_0VN0b6HMNaHokt-63" value="" style="rounded=0;orthogonalLoop=1;jettySize=auto;html=1;endArrow=halfCircle;endFill=0;endSize=6;strokeWidth=1;sketch=0;fontSize=12;curved=1;" edge="1" parent="1" target="OlhHN_0VN0b6HMNaHokt-77">
          <mxGeometry relative="1" as="geometry">
            <mxPoint x="815.67" y="560" as="sourcePoint" />
          </mxGeometry>
        </mxCell>
        <mxCell id="OlhHN_0VN0b6HMNaHokt-77" value="" style="ellipse;whiteSpace=wrap;html=1;align=center;aspect=fixed;fillColor=none;strokeColor=none;resizable=0;perimeter=centerPerimeter;rotatable=0;allowArrows=0;points=[];outlineConnect=1;" vertex="1" parent="1">
          <mxGeometry x="809.9999999999999" y="520" width="10" height="10" as="geometry" />
        </mxCell>
        <mxCell id="OlhHN_0VN0b6HMNaHokt-78" value="" style="rounded=0;orthogonalLoop=1;jettySize=auto;html=1;endArrow=oval;endFill=0;sketch=0;sourcePerimeterSpacing=0;targetPerimeterSpacing=0;endSize=10;fontSize=12;curved=1;exitX=0.5;exitY=1;exitDx=0;exitDy=0;" edge="1" parent="1" source="OlhHN_0VN0b6HMNaHokt-179" target="OlhHN_0VN0b6HMNaHokt-77">
          <mxGeometry relative="1" as="geometry">
            <mxPoint x="814.9999999999999" y="500.0000000000001" as="sourcePoint" />
          </mxGeometry>
        </mxCell>
        <mxCell id="OlhHN_0VN0b6HMNaHokt-94" value="&lt;span style=&quot;color: rgb(0, 0, 0); font-family: Helvetica; font-size: 18px; font-style: normal; font-variant-ligatures: normal; font-variant-caps: normal; font-weight: 700; letter-spacing: normal; orphans: 2; text-align: center; text-indent: 0px; text-transform: none; widows: 2; word-spacing: 0px; -webkit-text-stroke-width: 0px; white-space: normal; background-color: rgb(251, 251, 251); text-decoration: underline; display: inline !important; float: none;&quot;&gt;Plataforma LegitBuildings&lt;/span&gt;" style="text;whiteSpace=wrap;html=1;" vertex="1" parent="1">
          <mxGeometry x="1822.5" y="271" width="337.5" height="50" as="geometry" />
        </mxCell>
        <mxCell id="OlhHN_0VN0b6HMNaHokt-144" value="«System»&lt;br&gt;&lt;b&gt;IA&lt;/b&gt;" style="html=1;dropTarget=0;whiteSpace=wrap;" vertex="1" parent="1">
          <mxGeometry x="1007.6500000000001" y="406.22" width="135.34" height="57.55" as="geometry" />
        </mxCell>
        <mxCell id="OlhHN_0VN0b6HMNaHokt-145" value="" style="shape=module;jettyWidth=8;jettyHeight=4;" vertex="1" parent="OlhHN_0VN0b6HMNaHokt-144">
          <mxGeometry x="1" width="20" height="20" relative="1" as="geometry">
            <mxPoint x="-27" y="7" as="offset" />
          </mxGeometry>
        </mxCell>
        <mxCell id="OlhHN_0VN0b6HMNaHokt-146" value="«Component»&lt;br&gt;&lt;b&gt;Camera&lt;/b&gt;" style="html=1;dropTarget=0;whiteSpace=wrap;" vertex="1" parent="1">
          <mxGeometry x="487.33" y="396" width="135.34" height="57.55" as="geometry" />
        </mxCell>
        <mxCell id="OlhHN_0VN0b6HMNaHokt-147" value="" style="shape=module;jettyWidth=8;jettyHeight=4;" vertex="1" parent="OlhHN_0VN0b6HMNaHokt-146">
          <mxGeometry x="1" width="20" height="20" relative="1" as="geometry">
            <mxPoint x="-27" y="7" as="offset" />
          </mxGeometry>
        </mxCell>
        <mxCell id="OlhHN_0VN0b6HMNaHokt-148" value="Fallas&lt;div&gt;DB&lt;/div&gt;" style="shape=cylinder3;whiteSpace=wrap;html=1;boundedLbl=1;backgroundOutline=1;size=15;" vertex="1" parent="1">
          <mxGeometry x="1540" y="490" width="60" height="80" as="geometry" />
        </mxCell>
        <mxCell id="OlhHN_0VN0b6HMNaHokt-150" value="«Component»&lt;br&gt;&lt;div&gt;CobrosManager&lt;/div&gt;" style="html=1;dropTarget=0;whiteSpace=wrap;" vertex="1" parent="1">
          <mxGeometry x="2420" y="510.5" width="160" height="75" as="geometry" />
        </mxCell>
        <mxCell id="OlhHN_0VN0b6HMNaHokt-151" value="" style="shape=module;jettyWidth=8;jettyHeight=4;" vertex="1" parent="OlhHN_0VN0b6HMNaHokt-150">
          <mxGeometry x="1" width="20" height="20" relative="1" as="geometry">
            <mxPoint x="-27" y="7" as="offset" />
          </mxGeometry>
        </mxCell>
        <mxCell id="OlhHN_0VN0b6HMNaHokt-149" value="Empleados revisores&lt;div&gt;LegitBuildings&lt;/div&gt;" style="shape=umlActor;verticalLabelPosition=bottom;verticalAlign=top;html=1;outlineConnect=0;" vertex="1" parent="1">
          <mxGeometry x="1248" y="100" width="30" height="60" as="geometry" />
        </mxCell>
        <mxCell id="OlhHN_0VN0b6HMNaHokt-152" value="Entidades regulatorias" style="shape=umlActor;verticalLabelPosition=bottom;verticalAlign=top;html=1;outlineConnect=0;" vertex="1" parent="1">
          <mxGeometry x="1845.5" y="877.5" width="30" height="60" as="geometry" />
        </mxCell>
        <mxCell id="OlhHN_0VN0b6HMNaHokt-155" value="Empresas constructoras" style="shape=umlActor;verticalLabelPosition=bottom;verticalAlign=top;html=1;outlineConnect=0;" vertex="1" parent="1">
          <mxGeometry x="2094.5" y="807.5" width="30" height="60" as="geometry" />
        </mxCell>
        <mxCell id="OlhHN_0VN0b6HMNaHokt-156" value="Creador del reporte" style="shape=umlActor;verticalLabelPosition=bottom;verticalAlign=top;html=1;outlineConnect=0;" vertex="1" parent="1">
          <mxGeometry x="800" y="560" width="30" height="60" as="geometry" />
        </mxCell>
        <mxCell id="OlhHN_0VN0b6HMNaHokt-159" value="«Component»&lt;br&gt;&lt;div&gt;PagosManager&lt;/div&gt;" style="html=1;dropTarget=0;whiteSpace=wrap;" vertex="1" parent="1">
          <mxGeometry x="2420" y="417.5" width="160" height="75" as="geometry" />
        </mxCell>
        <mxCell id="OlhHN_0VN0b6HMNaHokt-160" value="" style="shape=module;jettyWidth=8;jettyHeight=4;" vertex="1" parent="OlhHN_0VN0b6HMNaHokt-159">
          <mxGeometry x="1" width="20" height="20" relative="1" as="geometry">
            <mxPoint x="-27" y="7" as="offset" />
          </mxGeometry>
        </mxCell>
        <mxCell id="OlhHN_0VN0b6HMNaHokt-161" value="«Component»&lt;br&gt;&lt;div&gt;ConsultasListener&lt;/div&gt;" style="html=1;dropTarget=0;whiteSpace=wrap;" vertex="1" parent="1">
          <mxGeometry x="1990" y="510" width="160" height="75" as="geometry" />
        </mxCell>
        <mxCell id="OlhHN_0VN0b6HMNaHokt-162" value="" style="shape=module;jettyWidth=8;jettyHeight=4;" vertex="1" parent="OlhHN_0VN0b6HMNaHokt-161">
          <mxGeometry x="1" width="20" height="20" relative="1" as="geometry">
            <mxPoint x="-27" y="7" as="offset" />
          </mxGeometry>
        </mxCell>
        <mxCell id="OlhHN_0VN0b6HMNaHokt-163" value="«Component»&lt;br&gt;&lt;div&gt;ReportMaker&lt;/div&gt;" style="html=1;dropTarget=0;whiteSpace=wrap;" vertex="1" parent="1">
          <mxGeometry x="1786" y="370" width="160" height="75" as="geometry" />
        </mxCell>
        <mxCell id="OlhHN_0VN0b6HMNaHokt-164" value="" style="shape=module;jettyWidth=8;jettyHeight=4;" vertex="1" parent="OlhHN_0VN0b6HMNaHokt-163">
          <mxGeometry x="1" width="20" height="20" relative="1" as="geometry">
            <mxPoint x="-27" y="7" as="offset" />
          </mxGeometry>
        </mxCell>
        <mxCell id="OlhHN_0VN0b6HMNaHokt-165" value="«Component»&lt;br&gt;&lt;div&gt;EmailSender&lt;/div&gt;" style="html=1;dropTarget=0;whiteSpace=wrap;" vertex="1" parent="1">
          <mxGeometry x="1786" y="510" width="160" height="75" as="geometry" />
        </mxCell>
        <mxCell id="OlhHN_0VN0b6HMNaHokt-166" value="" style="shape=module;jettyWidth=8;jettyHeight=4;" vertex="1" parent="OlhHN_0VN0b6HMNaHokt-165">
          <mxGeometry x="1" width="20" height="20" relative="1" as="geometry">
            <mxPoint x="-27" y="7" as="offset" />
          </mxGeometry>
        </mxCell>
        <mxCell id="OlhHN_0VN0b6HMNaHokt-170" value="&lt;span style=&quot;color: rgb(0, 0, 0); font-family: Helvetica; font-size: 12px; font-style: normal; font-variant-ligatures: normal; font-variant-caps: normal; font-weight: 400; letter-spacing: normal; orphans: 2; text-indent: 0px; text-transform: none; widows: 2; word-spacing: 0px; -webkit-text-stroke-width: 0px; white-space: normal; background-color: rgb(251, 251, 251); text-decoration-thickness: initial; text-decoration-style: initial; text-decoration-color: initial; float: none; display: inline !important;&quot;&gt;«Hardware»&lt;/span&gt;&lt;br style=&quot;border-color: var(--border-color); color: rgb(0, 0, 0); font-family: Helvetica; font-size: 12px; font-style: normal; font-variant-ligatures: normal; font-variant-caps: normal; font-weight: 400; letter-spacing: normal; orphans: 2; text-indent: 0px; text-transform: none; widows: 2; word-spacing: 0px; -webkit-text-stroke-width: 0px; white-space: normal; background-color: rgb(251, 251, 251); text-decoration-thickness: initial; text-decoration-style: initial; text-decoration-color: initial;&quot;&gt;&lt;b style=&quot;border-color: var(--border-color); color: rgb(0, 0, 0); font-family: Helvetica; font-size: 12px; font-style: normal; font-variant-ligatures: normal; font-variant-caps: normal; letter-spacing: normal; orphans: 2; text-indent: 0px; text-transform: none; widows: 2; word-spacing: 0px; -webkit-text-stroke-width: 0px; white-space: normal; background-color: rgb(251, 251, 251); text-decoration-thickness: initial; text-decoration-style: initial; text-decoration-color: initial;&quot;&gt;Celular&lt;/b&gt;" style="text;whiteSpace=wrap;html=1;align=center;" vertex="1" parent="1">
          <mxGeometry x="500" y="350" width="100" height="50" as="geometry" />
        </mxCell>
        <mxCell id="OlhHN_0VN0b6HMNaHokt-181" value="&lt;span style=&quot;color: rgb(0, 0, 0); font-family: Helvetica; font-size: 12px; font-style: normal; font-variant-ligatures: normal; font-variant-caps: normal; font-weight: 400; letter-spacing: normal; orphans: 2; text-indent: 0px; text-transform: none; widows: 2; word-spacing: 0px; -webkit-text-stroke-width: 0px; white-space: normal; background-color: rgb(251, 251, 251); text-decoration-thickness: initial; text-decoration-style: initial; text-decoration-color: initial; float: none; display: inline !important;&quot;&gt;«UI»&lt;/span&gt;&lt;br style=&quot;border-color: var(--border-color); color: rgb(0, 0, 0); font-family: Helvetica; font-size: 12px; font-style: normal; font-variant-ligatures: normal; font-variant-caps: normal; font-weight: 400; letter-spacing: normal; orphans: 2; text-indent: 0px; text-transform: none; widows: 2; word-spacing: 0px; -webkit-text-stroke-width: 0px; white-space: normal; background-color: rgb(251, 251, 251); text-decoration-thickness: initial; text-decoration-style: initial; text-decoration-color: initial;&quot;&gt;&lt;b style=&quot;border-color: var(--border-color); color: rgb(0, 0, 0); font-family: Helvetica; font-size: 12px; font-style: normal; font-variant-ligatures: normal; font-variant-caps: normal; letter-spacing: normal; orphans: 2; text-indent: 0px; text-transform: none; widows: 2; word-spacing: 0px; -webkit-text-stroke-width: 0px; white-space: normal; background-color: rgb(251, 251, 251); text-decoration-thickness: initial; text-decoration-style: initial; text-decoration-color: initial;&quot;&gt;Front Aplicación Plataforma&lt;/b&gt;" style="text;whiteSpace=wrap;html=1;align=center;" vertex="1" parent="1">
          <mxGeometry x="740" y="346" width="160" height="50" as="geometry" />
        </mxCell>
        <mxCell id="OlhHN_0VN0b6HMNaHokt-179" value="" style="html=1;dropTarget=0;whiteSpace=wrap;fillColor=none;" vertex="1" parent="1">
          <mxGeometry x="730" y="350" width="180" height="131.28" as="geometry" />
        </mxCell>
        <mxCell id="OlhHN_0VN0b6HMNaHokt-180" value="" style="shape=module;jettyWidth=8;jettyHeight=4;" vertex="1" parent="OlhHN_0VN0b6HMNaHokt-179">
          <mxGeometry x="1" width="20" height="20" relative="1" as="geometry">
            <mxPoint x="-27" y="7" as="offset" />
          </mxGeometry>
        </mxCell>
        <mxCell id="OlhHN_0VN0b6HMNaHokt-184" value="UploadMedia" style="shape=module;align=left;spacingLeft=20;align=center;verticalAlign=top;whiteSpace=wrap;html=1;" vertex="1" parent="1">
          <mxGeometry x="770" y="410" width="100" height="50" as="geometry" />
        </mxCell>
        <mxCell id="OlhHN_0VN0b6HMNaHokt-187" value="" style="rounded=0;orthogonalLoop=1;jettySize=auto;html=1;endArrow=halfCircle;endFill=0;endSize=6;strokeWidth=1;sketch=0;exitX=0.085;exitY=0.479;exitDx=0;exitDy=0;exitPerimeter=0;" edge="1" target="OlhHN_0VN0b6HMNaHokt-189" parent="1" source="OlhHN_0VN0b6HMNaHokt-184">
          <mxGeometry relative="1" as="geometry">
            <mxPoint x="710" y="435" as="sourcePoint" />
          </mxGeometry>
        </mxCell>
        <mxCell id="OlhHN_0VN0b6HMNaHokt-188" value="" style="rounded=0;orthogonalLoop=1;jettySize=auto;html=1;endArrow=oval;endFill=0;sketch=0;sourcePerimeterSpacing=0;targetPerimeterSpacing=0;endSize=10;" edge="1" target="OlhHN_0VN0b6HMNaHokt-189" parent="1" source="OlhHN_0VN0b6HMNaHokt-146">
          <mxGeometry relative="1" as="geometry">
            <mxPoint x="670" y="435" as="sourcePoint" />
            <Array as="points">
              <mxPoint x="670" y="430" />
            </Array>
          </mxGeometry>
        </mxCell>
        <mxCell id="OlhHN_0VN0b6HMNaHokt-189" value="" style="ellipse;whiteSpace=wrap;html=1;align=center;aspect=fixed;fillColor=none;strokeColor=none;resizable=0;perimeter=centerPerimeter;rotatable=0;allowArrows=0;points=[];outlineConnect=1;" vertex="1" parent="1">
          <mxGeometry x="685" y="430" width="10" height="10" as="geometry" />
        </mxCell>
        <mxCell id="OlhHN_0VN0b6HMNaHokt-190" value="«Component»&lt;br&gt;&lt;div&gt;SaveFalla&lt;/div&gt;" style="html=1;dropTarget=0;whiteSpace=wrap;" vertex="1" parent="1">
          <mxGeometry x="1196" y="500" width="160" height="75" as="geometry" />
        </mxCell>
        <mxCell id="OlhHN_0VN0b6HMNaHokt-191" value="" style="shape=module;jettyWidth=8;jettyHeight=4;" vertex="1" parent="OlhHN_0VN0b6HMNaHokt-190">
          <mxGeometry x="1" width="20" height="20" relative="1" as="geometry">
            <mxPoint x="-27" y="7" as="offset" />
          </mxGeometry>
        </mxCell>
        <mxCell id="OlhHN_0VN0b6HMNaHokt-192" value="&lt;div&gt;Miembros DB&lt;/div&gt;" style="shape=cylinder3;whiteSpace=wrap;html=1;boundedLbl=1;backgroundOutline=1;size=15;" vertex="1" parent="1">
          <mxGeometry x="2020" y="350" width="60" height="80" as="geometry" />
        </mxCell>
        <mxCell id="OlhHN_0VN0b6HMNaHokt-197" value="" style="rounded=0;orthogonalLoop=1;jettySize=auto;html=1;endArrow=halfCircle;endFill=0;endSize=6;strokeWidth=1;sketch=0;exitX=0;exitY=0.5;exitDx=0;exitDy=0;" edge="1" target="OlhHN_0VN0b6HMNaHokt-199" parent="1" source="OlhHN_0VN0b6HMNaHokt-144">
          <mxGeometry relative="1" as="geometry">
            <mxPoint x="960" y="435" as="sourcePoint" />
          </mxGeometry>
        </mxCell>
        <mxCell id="OlhHN_0VN0b6HMNaHokt-198" value="" style="rounded=0;orthogonalLoop=1;jettySize=auto;html=1;endArrow=oval;endFill=0;sketch=0;sourcePerimeterSpacing=0;targetPerimeterSpacing=0;endSize=10;exitX=1;exitY=0.5;exitDx=0;exitDy=0;" edge="1" target="OlhHN_0VN0b6HMNaHokt-199" parent="1" source="OlhHN_0VN0b6HMNaHokt-184">
          <mxGeometry relative="1" as="geometry">
            <mxPoint x="920" y="435" as="sourcePoint" />
          </mxGeometry>
        </mxCell>
        <mxCell id="OlhHN_0VN0b6HMNaHokt-199" value="" style="ellipse;whiteSpace=wrap;html=1;align=center;aspect=fixed;fillColor=none;strokeColor=none;resizable=0;perimeter=centerPerimeter;rotatable=0;allowArrows=0;points=[];outlineConnect=1;" vertex="1" parent="1">
          <mxGeometry x="935" y="430" width="10" height="10" as="geometry" />
        </mxCell>
        <mxCell id="OlhHN_0VN0b6HMNaHokt-202" value="" style="rounded=0;orthogonalLoop=1;jettySize=auto;html=1;endArrow=halfCircle;endFill=0;endSize=6;strokeWidth=1;sketch=0;" edge="1" target="OlhHN_0VN0b6HMNaHokt-204" parent="1" source="OlhHN_0VN0b6HMNaHokt-149">
          <mxGeometry relative="1" as="geometry">
            <mxPoint x="1270" y="360" as="sourcePoint" />
          </mxGeometry>
        </mxCell>
        <mxCell id="OlhHN_0VN0b6HMNaHokt-203" value="" style="rounded=0;orthogonalLoop=1;jettySize=auto;html=1;endArrow=oval;endFill=0;sketch=0;sourcePerimeterSpacing=0;targetPerimeterSpacing=0;endSize=10;exitX=1;exitY=0.5;exitDx=0;exitDy=0;" edge="1" target="OlhHN_0VN0b6HMNaHokt-204" parent="1" source="OlhHN_0VN0b6HMNaHokt-144">
          <mxGeometry relative="1" as="geometry">
            <mxPoint x="1170" y="385" as="sourcePoint" />
          </mxGeometry>
        </mxCell>
        <mxCell id="OlhHN_0VN0b6HMNaHokt-204" value="" style="ellipse;whiteSpace=wrap;html=1;align=center;aspect=fixed;fillColor=none;strokeColor=none;resizable=0;perimeter=centerPerimeter;rotatable=0;allowArrows=0;points=[];outlineConnect=1;" vertex="1" parent="1">
          <mxGeometry x="1185" y="380" width="10" height="10" as="geometry" />
        </mxCell>
        <mxCell id="OlhHN_0VN0b6HMNaHokt-205" value="" style="rounded=0;orthogonalLoop=1;jettySize=auto;html=1;endArrow=halfCircle;endFill=0;endSize=6;strokeWidth=1;sketch=0;exitX=0;exitY=0.5;exitDx=0;exitDy=0;" edge="1" target="OlhHN_0VN0b6HMNaHokt-207" parent="1" source="OlhHN_0VN0b6HMNaHokt-190">
          <mxGeometry relative="1" as="geometry">
            <mxPoint x="1185" y="476" as="sourcePoint" />
          </mxGeometry>
        </mxCell>
        <mxCell id="OlhHN_0VN0b6HMNaHokt-206" value="" style="rounded=0;orthogonalLoop=1;jettySize=auto;html=1;endArrow=oval;endFill=0;sketch=0;sourcePerimeterSpacing=0;targetPerimeterSpacing=0;endSize=10;exitX=1;exitY=1;exitDx=0;exitDy=0;" edge="1" target="OlhHN_0VN0b6HMNaHokt-207" parent="1" source="OlhHN_0VN0b6HMNaHokt-144">
          <mxGeometry relative="1" as="geometry">
            <mxPoint x="1145" y="476" as="sourcePoint" />
          </mxGeometry>
        </mxCell>
        <mxCell id="OlhHN_0VN0b6HMNaHokt-207" value="" style="ellipse;whiteSpace=wrap;html=1;align=center;aspect=fixed;fillColor=none;strokeColor=none;resizable=0;perimeter=centerPerimeter;rotatable=0;allowArrows=0;points=[];outlineConnect=1;" vertex="1" parent="1">
          <mxGeometry x="1150" y="490" width="10" height="10" as="geometry" />
        </mxCell>
        <mxCell id="OlhHN_0VN0b6HMNaHokt-208" value="" style="rounded=0;orthogonalLoop=1;jettySize=auto;html=1;endArrow=halfCircle;endFill=0;endSize=6;strokeWidth=1;sketch=0;exitX=0;exitY=0.5;exitDx=0;exitDy=0;exitPerimeter=0;" edge="1" target="OlhHN_0VN0b6HMNaHokt-210" parent="1" source="OlhHN_0VN0b6HMNaHokt-148">
          <mxGeometry relative="1" as="geometry">
            <mxPoint x="1440" y="538" as="sourcePoint" />
          </mxGeometry>
        </mxCell>
        <mxCell id="OlhHN_0VN0b6HMNaHokt-209" value="" style="rounded=0;orthogonalLoop=1;jettySize=auto;html=1;endArrow=oval;endFill=0;sketch=0;sourcePerimeterSpacing=0;targetPerimeterSpacing=0;endSize=10;exitX=1;exitY=0.5;exitDx=0;exitDy=0;" edge="1" target="OlhHN_0VN0b6HMNaHokt-210" parent="1" source="OlhHN_0VN0b6HMNaHokt-190">
          <mxGeometry relative="1" as="geometry">
            <mxPoint x="1400" y="538" as="sourcePoint" />
          </mxGeometry>
        </mxCell>
        <mxCell id="OlhHN_0VN0b6HMNaHokt-210" value="" style="ellipse;whiteSpace=wrap;html=1;align=center;aspect=fixed;fillColor=none;strokeColor=none;resizable=0;perimeter=centerPerimeter;rotatable=0;allowArrows=0;points=[];outlineConnect=1;" vertex="1" parent="1">
          <mxGeometry x="1415" y="533" width="10" height="10" as="geometry" />
        </mxCell>
        <mxCell id="OlhHN_0VN0b6HMNaHokt-211" value="«Component»&lt;br&gt;&lt;div&gt;FallaManual&lt;/div&gt;" style="html=1;dropTarget=0;whiteSpace=wrap;" vertex="1" parent="1">
          <mxGeometry x="1400" y="321" width="160" height="75" as="geometry" />
        </mxCell>
        <mxCell id="OlhHN_0VN0b6HMNaHokt-212" value="" style="shape=module;jettyWidth=8;jettyHeight=4;" vertex="1" parent="OlhHN_0VN0b6HMNaHokt-211">
          <mxGeometry x="1" width="20" height="20" relative="1" as="geometry">
            <mxPoint x="-27" y="7" as="offset" />
          </mxGeometry>
        </mxCell>
        <mxCell id="OlhHN_0VN0b6HMNaHokt-213" value="" style="rounded=0;orthogonalLoop=1;jettySize=auto;html=1;endArrow=halfCircle;endFill=0;endSize=6;strokeWidth=1;sketch=0;exitX=0;exitY=0.5;exitDx=0;exitDy=0;" edge="1" target="OlhHN_0VN0b6HMNaHokt-215" parent="1" source="OlhHN_0VN0b6HMNaHokt-211">
          <mxGeometry relative="1" as="geometry">
            <mxPoint x="1356" y="360" as="sourcePoint" />
          </mxGeometry>
        </mxCell>
        <mxCell id="OlhHN_0VN0b6HMNaHokt-215" value="" style="ellipse;whiteSpace=wrap;html=1;align=center;aspect=fixed;fillColor=none;strokeColor=none;resizable=0;perimeter=centerPerimeter;rotatable=0;allowArrows=0;points=[];outlineConnect=1;" vertex="1" parent="1">
          <mxGeometry x="1331" y="355" width="10" height="10" as="geometry" />
        </mxCell>
        <mxCell id="OlhHN_0VN0b6HMNaHokt-216" value="" style="rounded=0;orthogonalLoop=1;jettySize=auto;html=1;endArrow=halfCircle;endFill=0;endSize=6;strokeWidth=1;sketch=0;" edge="1" target="OlhHN_0VN0b6HMNaHokt-218" parent="1" source="OlhHN_0VN0b6HMNaHokt-190">
          <mxGeometry relative="1" as="geometry">
            <mxPoint x="1416" y="450" as="sourcePoint" />
          </mxGeometry>
        </mxCell>
        <mxCell id="OlhHN_0VN0b6HMNaHokt-217" value="" style="rounded=0;orthogonalLoop=1;jettySize=auto;html=1;endArrow=oval;endFill=0;sketch=0;sourcePerimeterSpacing=0;targetPerimeterSpacing=0;endSize=10;exitX=0.5;exitY=1;exitDx=0;exitDy=0;" edge="1" target="OlhHN_0VN0b6HMNaHokt-218" parent="1" source="OlhHN_0VN0b6HMNaHokt-211">
          <mxGeometry relative="1" as="geometry">
            <mxPoint x="1376" y="450" as="sourcePoint" />
          </mxGeometry>
        </mxCell>
        <mxCell id="OlhHN_0VN0b6HMNaHokt-218" value="" style="ellipse;whiteSpace=wrap;html=1;align=center;aspect=fixed;fillColor=none;strokeColor=none;resizable=0;perimeter=centerPerimeter;rotatable=0;allowArrows=0;points=[];outlineConnect=1;" vertex="1" parent="1">
          <mxGeometry x="1391" y="445" width="10" height="10" as="geometry" />
        </mxCell>
        <mxCell id="OlhHN_0VN0b6HMNaHokt-219" value="" style="rounded=0;orthogonalLoop=1;jettySize=auto;html=1;endArrow=halfCircle;endFill=0;endSize=6;strokeWidth=1;sketch=0;exitX=0;exitY=0.5;exitDx=0;exitDy=0;" edge="1" target="OlhHN_0VN0b6HMNaHokt-221" parent="1" source="OlhHN_0VN0b6HMNaHokt-163">
          <mxGeometry relative="1" as="geometry">
            <mxPoint x="1680" y="516" as="sourcePoint" />
          </mxGeometry>
        </mxCell>
        <mxCell id="OlhHN_0VN0b6HMNaHokt-220" value="" style="rounded=0;orthogonalLoop=1;jettySize=auto;html=1;endArrow=oval;endFill=0;sketch=0;sourcePerimeterSpacing=0;targetPerimeterSpacing=0;endSize=10;exitX=1;exitY=0;exitDx=0;exitDy=27.5;exitPerimeter=0;" edge="1" target="OlhHN_0VN0b6HMNaHokt-221" parent="1" source="OlhHN_0VN0b6HMNaHokt-148">
          <mxGeometry relative="1" as="geometry">
            <mxPoint x="1640" y="516" as="sourcePoint" />
          </mxGeometry>
        </mxCell>
        <mxCell id="OlhHN_0VN0b6HMNaHokt-221" value="" style="ellipse;whiteSpace=wrap;html=1;align=center;aspect=fixed;fillColor=none;strokeColor=none;resizable=0;perimeter=centerPerimeter;rotatable=0;allowArrows=0;points=[];outlineConnect=1;" vertex="1" parent="1">
          <mxGeometry x="1640" y="481.28" width="10" height="10" as="geometry" />
        </mxCell>
        <mxCell id="OlhHN_0VN0b6HMNaHokt-222" value="" style="ellipse;whiteSpace=wrap;html=1;align=center;aspect=fixed;fillColor=none;strokeColor=none;resizable=0;perimeter=centerPerimeter;rotatable=0;allowArrows=0;points=[];outlineConnect=1;" vertex="1" parent="1">
          <mxGeometry x="1860.5" y="483" width="10" height="10" as="geometry" />
        </mxCell>
        <mxCell id="OlhHN_0VN0b6HMNaHokt-223" value="" style="rounded=0;orthogonalLoop=1;jettySize=auto;html=1;endArrow=oval;endFill=0;sketch=0;sourcePerimeterSpacing=0;targetPerimeterSpacing=0;endSize=10;fontSize=12;curved=1;exitX=0.5;exitY=1;exitDx=0;exitDy=0;" edge="1" parent="1">
          <mxGeometry relative="1" as="geometry">
            <mxPoint x="1865.5" y="445" as="sourcePoint" />
            <mxPoint x="1866" y="470" as="targetPoint" />
          </mxGeometry>
        </mxCell>
        <mxCell id="OlhHN_0VN0b6HMNaHokt-224" value="" style="rounded=0;orthogonalLoop=1;jettySize=auto;html=1;endArrow=halfCircle;endFill=0;endSize=6;strokeWidth=1;sketch=0;fontSize=12;curved=1;" edge="1" parent="1">
          <mxGeometry relative="1" as="geometry">
            <mxPoint x="1866" y="510" as="sourcePoint" />
            <mxPoint x="1866" y="470" as="targetPoint" />
          </mxGeometry>
        </mxCell>
        <mxCell id="OlhHN_0VN0b6HMNaHokt-225" value="" style="ellipse;whiteSpace=wrap;html=1;align=center;aspect=fixed;fillColor=none;strokeColor=none;resizable=0;perimeter=centerPerimeter;rotatable=0;allowArrows=0;points=[];outlineConnect=1;" vertex="1" parent="1">
          <mxGeometry x="1861" y="623" width="10" height="10" as="geometry" />
        </mxCell>
        <mxCell id="OlhHN_0VN0b6HMNaHokt-226" value="" style="rounded=0;orthogonalLoop=1;jettySize=auto;html=1;endArrow=oval;endFill=0;sketch=0;sourcePerimeterSpacing=0;targetPerimeterSpacing=0;endSize=10;fontSize=12;curved=1;exitX=0.5;exitY=1;exitDx=0;exitDy=0;" edge="1" parent="1">
          <mxGeometry relative="1" as="geometry">
            <mxPoint x="1866" y="585" as="sourcePoint" />
            <mxPoint x="1866.5" y="610" as="targetPoint" />
          </mxGeometry>
        </mxCell>
        <mxCell id="OlhHN_0VN0b6HMNaHokt-230" value="" style="html=1;whiteSpace=wrap;fillColor=none;" vertex="1" parent="1">
          <mxGeometry x="980" y="271" width="1750" height="419" as="geometry" />
        </mxCell>
        <mxCell id="OlhHN_0VN0b6HMNaHokt-227" value="" style="rounded=0;orthogonalLoop=1;jettySize=auto;html=1;endArrow=halfCircle;endFill=0;endSize=6;strokeWidth=1;sketch=0;fontSize=12;curved=1;exitX=0.5;exitY=0;exitDx=0;exitDy=0;exitPerimeter=0;" edge="1" parent="1" source="OlhHN_0VN0b6HMNaHokt-152">
          <mxGeometry relative="1" as="geometry">
            <mxPoint x="1867" y="760" as="sourcePoint" />
            <mxPoint x="1866.5" y="610" as="targetPoint" />
          </mxGeometry>
        </mxCell>
        <mxCell id="OlhHN_0VN0b6HMNaHokt-232" value="«Component»&lt;br&gt;&lt;div&gt;ConsultasManager&lt;/div&gt;" style="html=1;dropTarget=0;whiteSpace=wrap;" vertex="1" parent="1">
          <mxGeometry x="2200" y="510" width="160" height="75" as="geometry" />
        </mxCell>
        <mxCell id="OlhHN_0VN0b6HMNaHokt-233" value="" style="shape=module;jettyWidth=8;jettyHeight=4;" vertex="1" parent="OlhHN_0VN0b6HMNaHokt-232">
          <mxGeometry x="1" width="20" height="20" relative="1" as="geometry">
            <mxPoint x="-27" y="7" as="offset" />
          </mxGeometry>
        </mxCell>
        <mxCell id="OlhHN_0VN0b6HMNaHokt-234" value="«Component»&lt;br&gt;&lt;div&gt;InfoSender&lt;/div&gt;" style="html=1;dropTarget=0;whiteSpace=wrap;" vertex="1" parent="1">
          <mxGeometry x="2420" y="602.5" width="160" height="75" as="geometry" />
        </mxCell>
        <mxCell id="OlhHN_0VN0b6HMNaHokt-235" value="" style="shape=module;jettyWidth=8;jettyHeight=4;" vertex="1" parent="OlhHN_0VN0b6HMNaHokt-234">
          <mxGeometry x="1" width="20" height="20" relative="1" as="geometry">
            <mxPoint x="-27" y="7" as="offset" />
          </mxGeometry>
        </mxCell>
        <mxCell id="OlhHN_0VN0b6HMNaHokt-236" value="" style="rounded=0;orthogonalLoop=1;jettySize=auto;html=1;endArrow=halfCircle;endFill=0;endSize=6;strokeWidth=1;sketch=0;exitX=0.444;exitY=-0.041;exitDx=0;exitDy=0;exitPerimeter=0;" edge="1" target="OlhHN_0VN0b6HMNaHokt-238" parent="1" source="OlhHN_0VN0b6HMNaHokt-161">
          <mxGeometry relative="1" as="geometry">
            <mxPoint x="2080" y="469" as="sourcePoint" />
          </mxGeometry>
        </mxCell>
        <mxCell id="OlhHN_0VN0b6HMNaHokt-237" value="" style="rounded=0;orthogonalLoop=1;jettySize=auto;html=1;endArrow=oval;endFill=0;sketch=0;sourcePerimeterSpacing=0;targetPerimeterSpacing=0;endSize=10;exitX=0.5;exitY=1;exitDx=0;exitDy=0;exitPerimeter=0;" edge="1" target="OlhHN_0VN0b6HMNaHokt-238" parent="1" source="OlhHN_0VN0b6HMNaHokt-192">
          <mxGeometry relative="1" as="geometry">
            <mxPoint x="2040" y="469" as="sourcePoint" />
          </mxGeometry>
        </mxCell>
        <mxCell id="OlhHN_0VN0b6HMNaHokt-238" value="" style="ellipse;whiteSpace=wrap;html=1;align=center;aspect=fixed;fillColor=none;strokeColor=none;resizable=0;perimeter=centerPerimeter;rotatable=0;allowArrows=0;points=[];outlineConnect=1;" vertex="1" parent="1">
          <mxGeometry x="2055" y="464" width="10" height="10" as="geometry" />
        </mxCell>
        <mxCell id="OlhHN_0VN0b6HMNaHokt-239" value="" style="rounded=0;orthogonalLoop=1;jettySize=auto;html=1;endArrow=halfCircle;endFill=0;endSize=6;strokeWidth=1;sketch=0;" edge="1" target="OlhHN_0VN0b6HMNaHokt-241" parent="1">
          <mxGeometry relative="1" as="geometry">
            <mxPoint x="2200" y="548" as="sourcePoint" />
          </mxGeometry>
        </mxCell>
        <mxCell id="OlhHN_0VN0b6HMNaHokt-240" value="" style="rounded=0;orthogonalLoop=1;jettySize=auto;html=1;endArrow=oval;endFill=0;sketch=0;sourcePerimeterSpacing=0;targetPerimeterSpacing=0;endSize=10;exitX=1;exitY=0.5;exitDx=0;exitDy=0;" edge="1" target="OlhHN_0VN0b6HMNaHokt-241" parent="1" source="OlhHN_0VN0b6HMNaHokt-161">
          <mxGeometry relative="1" as="geometry">
            <mxPoint x="2160" y="548" as="sourcePoint" />
          </mxGeometry>
        </mxCell>
        <mxCell id="OlhHN_0VN0b6HMNaHokt-241" value="" style="ellipse;whiteSpace=wrap;html=1;align=center;aspect=fixed;fillColor=none;strokeColor=none;resizable=0;perimeter=centerPerimeter;rotatable=0;allowArrows=0;points=[];outlineConnect=1;" vertex="1" parent="1">
          <mxGeometry x="2175" y="543" width="10" height="10" as="geometry" />
        </mxCell>
        <mxCell id="OlhHN_0VN0b6HMNaHokt-242" value="" style="rounded=0;orthogonalLoop=1;jettySize=auto;html=1;endArrow=halfCircle;endFill=0;endSize=6;strokeWidth=1;sketch=0;exitX=-0.001;exitY=0.398;exitDx=0;exitDy=0;exitPerimeter=0;" edge="1" target="OlhHN_0VN0b6HMNaHokt-244" parent="1" source="OlhHN_0VN0b6HMNaHokt-159">
          <mxGeometry relative="1" as="geometry">
            <mxPoint x="2410" y="555" as="sourcePoint" />
          </mxGeometry>
        </mxCell>
        <mxCell id="OlhHN_0VN0b6HMNaHokt-243" value="" style="rounded=0;orthogonalLoop=1;jettySize=auto;html=1;endArrow=oval;endFill=0;sketch=0;sourcePerimeterSpacing=0;targetPerimeterSpacing=0;endSize=10;exitX=1.008;exitY=0.581;exitDx=0;exitDy=0;exitPerimeter=0;" edge="1" target="OlhHN_0VN0b6HMNaHokt-244" parent="1" source="OlhHN_0VN0b6HMNaHokt-232">
          <mxGeometry relative="1" as="geometry">
            <mxPoint x="2370" y="555" as="sourcePoint" />
          </mxGeometry>
        </mxCell>
        <mxCell id="OlhHN_0VN0b6HMNaHokt-244" value="" style="ellipse;whiteSpace=wrap;html=1;align=center;aspect=fixed;fillColor=none;strokeColor=none;resizable=0;perimeter=centerPerimeter;rotatable=0;allowArrows=0;points=[];outlineConnect=1;" vertex="1" parent="1">
          <mxGeometry x="2385" y="483" width="10" height="10" as="geometry" />
        </mxCell>
        <mxCell id="OlhHN_0VN0b6HMNaHokt-248" value="" style="rounded=0;orthogonalLoop=1;jettySize=auto;html=1;endArrow=halfCircle;endFill=0;endSize=6;strokeWidth=1;sketch=0;exitX=-0.014;exitY=0.546;exitDx=0;exitDy=0;exitPerimeter=0;" edge="1" target="OlhHN_0VN0b6HMNaHokt-250" parent="1" source="OlhHN_0VN0b6HMNaHokt-150">
          <mxGeometry relative="1" as="geometry">
            <mxPoint x="2410" y="558" as="sourcePoint" />
          </mxGeometry>
        </mxCell>
        <mxCell id="OlhHN_0VN0b6HMNaHokt-249" value="" style="rounded=0;orthogonalLoop=1;jettySize=auto;html=1;endArrow=oval;endFill=0;sketch=0;sourcePerimeterSpacing=0;targetPerimeterSpacing=0;endSize=10;" edge="1" target="OlhHN_0VN0b6HMNaHokt-250" parent="1">
          <mxGeometry relative="1" as="geometry">
            <mxPoint x="2360" y="550" as="sourcePoint" />
          </mxGeometry>
        </mxCell>
        <mxCell id="OlhHN_0VN0b6HMNaHokt-250" value="" style="ellipse;whiteSpace=wrap;html=1;align=center;aspect=fixed;fillColor=none;strokeColor=none;resizable=0;perimeter=centerPerimeter;rotatable=0;allowArrows=0;points=[];outlineConnect=1;" vertex="1" parent="1">
          <mxGeometry x="2385" y="550" width="10" height="10" as="geometry" />
        </mxCell>
        <mxCell id="OlhHN_0VN0b6HMNaHokt-251" value="" style="rounded=0;orthogonalLoop=1;jettySize=auto;html=1;endArrow=halfCircle;endFill=0;endSize=6;strokeWidth=1;sketch=0;exitX=0;exitY=0.5;exitDx=0;exitDy=0;" edge="1" target="OlhHN_0VN0b6HMNaHokt-253" parent="1" source="OlhHN_0VN0b6HMNaHokt-234">
          <mxGeometry relative="1" as="geometry">
            <mxPoint x="2395" y="618" as="sourcePoint" />
            <Array as="points">
              <mxPoint x="2390" y="618" />
            </Array>
          </mxGeometry>
        </mxCell>
        <mxCell id="OlhHN_0VN0b6HMNaHokt-252" value="" style="rounded=0;orthogonalLoop=1;jettySize=auto;html=1;endArrow=oval;endFill=0;sketch=0;sourcePerimeterSpacing=0;targetPerimeterSpacing=0;endSize=10;exitX=1;exitY=1;exitDx=0;exitDy=0;" edge="1" target="OlhHN_0VN0b6HMNaHokt-253" parent="1" source="OlhHN_0VN0b6HMNaHokt-232">
          <mxGeometry relative="1" as="geometry">
            <mxPoint x="2360" y="620" as="sourcePoint" />
          </mxGeometry>
        </mxCell>
        <mxCell id="OlhHN_0VN0b6HMNaHokt-253" value="" style="ellipse;whiteSpace=wrap;html=1;align=center;aspect=fixed;fillColor=none;strokeColor=none;resizable=0;perimeter=centerPerimeter;rotatable=0;allowArrows=0;points=[];outlineConnect=1;" vertex="1" parent="1">
          <mxGeometry x="2375" y="602.5" width="10" height="10" as="geometry" />
        </mxCell>
        <mxCell id="OlhHN_0VN0b6HMNaHokt-255" value="" style="rounded=0;orthogonalLoop=1;jettySize=auto;html=1;endArrow=halfCircle;endFill=0;endSize=6;strokeWidth=1;sketch=0;exitX=0;exitY=0.5;exitDx=0;exitDy=0;" edge="1" target="OlhHN_0VN0b6HMNaHokt-257" parent="1" source="OlhHN_0VN0b6HMNaHokt-259">
          <mxGeometry relative="1" as="geometry">
            <mxPoint x="2030" y="705" as="sourcePoint" />
          </mxGeometry>
        </mxCell>
        <mxCell id="OlhHN_0VN0b6HMNaHokt-256" value="" style="rounded=0;orthogonalLoop=1;jettySize=auto;html=1;endArrow=oval;endFill=0;sketch=0;sourcePerimeterSpacing=0;targetPerimeterSpacing=0;endSize=10;" edge="1" parent="1">
          <mxGeometry relative="1" as="geometry">
            <mxPoint x="1864.5" y="867.5" as="sourcePoint" />
            <mxPoint x="1960" y="740" as="targetPoint" />
          </mxGeometry>
        </mxCell>
        <mxCell id="OlhHN_0VN0b6HMNaHokt-257" value="" style="ellipse;whiteSpace=wrap;html=1;align=center;aspect=fixed;fillColor=none;strokeColor=none;resizable=0;perimeter=centerPerimeter;rotatable=0;allowArrows=0;points=[];outlineConnect=1;" vertex="1" parent="1">
          <mxGeometry x="1957" y="733" width="10" height="10" as="geometry" />
        </mxCell>
        <mxCell id="OlhHN_0VN0b6HMNaHokt-259" value="" style="rounded=0;whiteSpace=wrap;html=1;rotation=-90;" vertex="1" parent="1">
          <mxGeometry x="2020" y="575" width="10" height="14" as="geometry" />
        </mxCell>
        <mxCell id="OlhHN_0VN0b6HMNaHokt-261" value="" style="rounded=0;whiteSpace=wrap;html=1;rotation=-90;" vertex="1" parent="1">
          <mxGeometry x="2080" y="575" width="10" height="14" as="geometry" />
        </mxCell>
        <mxCell id="OlhHN_0VN0b6HMNaHokt-262" value="" style="rounded=0;orthogonalLoop=1;jettySize=auto;html=1;endArrow=halfCircle;endFill=0;endSize=6;strokeWidth=1;sketch=0;exitX=0;exitY=0.5;exitDx=0;exitDy=0;" edge="1" target="OlhHN_0VN0b6HMNaHokt-264" parent="1" source="OlhHN_0VN0b6HMNaHokt-261">
          <mxGeometry relative="1" as="geometry">
            <mxPoint x="2135" y="705" as="sourcePoint" />
          </mxGeometry>
        </mxCell>
        <mxCell id="OlhHN_0VN0b6HMNaHokt-263" value="" style="rounded=0;orthogonalLoop=1;jettySize=auto;html=1;endArrow=oval;endFill=0;sketch=0;sourcePerimeterSpacing=0;targetPerimeterSpacing=0;endSize=10;" edge="1" target="OlhHN_0VN0b6HMNaHokt-264" parent="1" source="OlhHN_0VN0b6HMNaHokt-155">
          <mxGeometry relative="1" as="geometry">
            <mxPoint x="2095" y="705" as="sourcePoint" />
          </mxGeometry>
        </mxCell>
        <mxCell id="OlhHN_0VN0b6HMNaHokt-264" value="" style="ellipse;whiteSpace=wrap;html=1;align=center;aspect=fixed;fillColor=none;strokeColor=none;resizable=0;perimeter=centerPerimeter;rotatable=0;allowArrows=0;points=[];outlineConnect=1;" vertex="1" parent="1">
          <mxGeometry x="2090" y="633" width="10" height="10" as="geometry" />
        </mxCell>
        <mxCell id="OlhHN_0VN0b6HMNaHokt-266" value="" style="rounded=0;orthogonalLoop=1;jettySize=auto;html=1;endArrow=halfCircle;endFill=0;endSize=6;strokeWidth=1;sketch=0;" edge="1" target="OlhHN_0VN0b6HMNaHokt-268" parent="1" source="OlhHN_0VN0b6HMNaHokt-155">
          <mxGeometry relative="1" as="geometry">
            <mxPoint x="2690" y="705" as="sourcePoint" />
          </mxGeometry>
        </mxCell>
        <mxCell id="OlhHN_0VN0b6HMNaHokt-267" value="" style="rounded=0;orthogonalLoop=1;jettySize=auto;html=1;endArrow=oval;endFill=0;sketch=0;sourcePerimeterSpacing=0;targetPerimeterSpacing=0;endSize=10;exitX=0.5;exitY=1;exitDx=0;exitDy=0;" edge="1" target="OlhHN_0VN0b6HMNaHokt-268" parent="1" source="OlhHN_0VN0b6HMNaHokt-234">
          <mxGeometry relative="1" as="geometry">
            <mxPoint x="2650" y="705" as="sourcePoint" />
            <Array as="points" />
          </mxGeometry>
        </mxCell>
        <mxCell id="OlhHN_0VN0b6HMNaHokt-268" value="" style="ellipse;whiteSpace=wrap;html=1;align=center;aspect=fixed;fillColor=none;strokeColor=none;resizable=0;perimeter=centerPerimeter;rotatable=0;allowArrows=0;points=[];outlineConnect=1;" vertex="1" parent="1">
          <mxGeometry x="2450" y="780" width="10" height="10" as="geometry" />
        </mxCell>
        <mxCell id="OlhHN_0VN0b6HMNaHokt-269" value="" style="rounded=0;orthogonalLoop=1;jettySize=auto;html=1;endArrow=halfCircle;endFill=0;endSize=6;strokeWidth=1;sketch=0;exitX=0.5;exitY=0;exitDx=0;exitDy=0;" edge="1" target="OlhHN_0VN0b6HMNaHokt-271" parent="1" source="OlhHN_0VN0b6HMNaHokt-232">
          <mxGeometry relative="1" as="geometry">
            <mxPoint x="2290" y="460" as="sourcePoint" />
            <Array as="points">
              <mxPoint x="2210" y="330" />
            </Array>
          </mxGeometry>
        </mxCell>
        <mxCell id="OlhHN_0VN0b6HMNaHokt-270" value="" style="rounded=0;orthogonalLoop=1;jettySize=auto;html=1;endArrow=oval;endFill=0;sketch=0;sourcePerimeterSpacing=0;targetPerimeterSpacing=0;endSize=10;exitX=0.312;exitY=0.03;exitDx=0;exitDy=0;exitPerimeter=0;" edge="1" target="OlhHN_0VN0b6HMNaHokt-271" parent="1" source="OlhHN_0VN0b6HMNaHokt-148">
          <mxGeometry relative="1" as="geometry">
            <mxPoint x="1967" y="326" as="sourcePoint" />
            <Array as="points">
              <mxPoint x="1710" y="350" />
            </Array>
          </mxGeometry>
        </mxCell>
        <mxCell id="OlhHN_0VN0b6HMNaHokt-271" value="" style="ellipse;whiteSpace=wrap;html=1;align=center;aspect=fixed;fillColor=none;strokeColor=none;resizable=0;perimeter=centerPerimeter;rotatable=0;allowArrows=0;points=[];outlineConnect=1;" vertex="1" parent="1">
          <mxGeometry x="1982" y="321" width="10" height="10" as="geometry" />
        </mxCell>
        <mxCell id="OlhHN_0VN0b6HMNaHokt-275" value="" style="rounded=0;orthogonalLoop=1;jettySize=auto;html=1;endArrow=oval;endFill=0;sketch=0;sourcePerimeterSpacing=0;targetPerimeterSpacing=0;endSize=10;exitX=1;exitY=0.5;exitDx=0;exitDy=0;" edge="1" parent="1" source="OlhHN_0VN0b6HMNaHokt-150">
          <mxGeometry relative="1" as="geometry">
            <mxPoint x="2635" y="684.5" as="sourcePoint" />
            <mxPoint x="2530" y="810" as="targetPoint" />
            <Array as="points">
              <mxPoint x="2600" y="700" />
            </Array>
          </mxGeometry>
        </mxCell>
        <mxCell id="OlhHN_0VN0b6HMNaHokt-276" value="" style="rounded=0;orthogonalLoop=1;jettySize=auto;html=1;endArrow=halfCircle;endFill=0;endSize=6;strokeWidth=1;sketch=0;exitX=0.5;exitY=0.5;exitDx=0;exitDy=0;exitPerimeter=0;" edge="1" parent="1" source="OlhHN_0VN0b6HMNaHokt-155">
          <mxGeometry relative="1" as="geometry">
            <mxPoint x="2140" y="850" as="sourcePoint" />
            <mxPoint x="2530" y="810" as="targetPoint" />
          </mxGeometry>
        </mxCell>
        <mxCell id="OlhHN_0VN0b6HMNaHokt-277" value="" style="rounded=0;orthogonalLoop=1;jettySize=auto;html=1;endArrow=oval;endFill=0;sketch=0;sourcePerimeterSpacing=0;targetPerimeterSpacing=0;endSize=10;exitX=1;exitY=0.5;exitDx=0;exitDy=0;" edge="1" parent="1">
          <mxGeometry relative="1" as="geometry">
            <mxPoint x="2581" y="455" as="sourcePoint" />
            <mxPoint x="2650" y="1000" as="targetPoint" />
            <Array as="points">
              <mxPoint x="2801" y="732" />
            </Array>
          </mxGeometry>
        </mxCell>
        <mxCell id="OlhHN_0VN0b6HMNaHokt-278" value="" style="rounded=0;orthogonalLoop=1;jettySize=auto;html=1;endArrow=halfCircle;endFill=0;endSize=6;strokeWidth=1;sketch=0;" edge="1" parent="1">
          <mxGeometry relative="1" as="geometry">
            <mxPoint x="800" y="650" as="sourcePoint" />
            <mxPoint x="2650" y="1000" as="targetPoint" />
            <Array as="points">
              <mxPoint x="1530" y="990" />
            </Array>
          </mxGeometry>
        </mxCell>
        <mxCell id="OlhHN_0VN0b6HMNaHokt-279" value="" style="rounded=0;orthogonalLoop=1;jettySize=auto;html=1;endArrow=oval;endFill=0;sketch=0;sourcePerimeterSpacing=0;targetPerimeterSpacing=0;endSize=10;exitX=0.5;exitY=1;exitDx=0;exitDy=0;" edge="1" parent="1">
          <mxGeometry relative="1" as="geometry">
            <mxPoint x="2440" y="673" as="sourcePoint" />
            <mxPoint x="2395" y="760" as="targetPoint" />
            <Array as="points" />
          </mxGeometry>
        </mxCell>
        <mxCell id="OlhHN_0VN0b6HMNaHokt-280" value="" style="rounded=0;orthogonalLoop=1;jettySize=auto;html=1;endArrow=halfCircle;endFill=0;endSize=6;strokeWidth=1;sketch=0;" edge="1" parent="1">
          <mxGeometry relative="1" as="geometry">
            <mxPoint x="1880" y="920" as="sourcePoint" />
            <mxPoint x="2395" y="760" as="targetPoint" />
            <Array as="points">
              <mxPoint x="2230" y="910" />
            </Array>
          </mxGeometry>
        </mxCell>
        <mxCell id="OlhHN_0VN0b6HMNaHokt-281" value="" style="rounded=0;orthogonalLoop=1;jettySize=auto;html=1;endArrow=oval;endFill=0;sketch=0;sourcePerimeterSpacing=0;targetPerimeterSpacing=0;endSize=10;" edge="1" parent="1">
          <mxGeometry relative="1" as="geometry">
            <mxPoint x="2580" y="550" as="sourcePoint" />
            <mxPoint x="2580" y="830" as="targetPoint" />
            <Array as="points">
              <mxPoint x="2650" y="712" />
            </Array>
          </mxGeometry>
        </mxCell>
        <mxCell id="OlhHN_0VN0b6HMNaHokt-282" value="" style="rounded=0;orthogonalLoop=1;jettySize=auto;html=1;endArrow=halfCircle;endFill=0;endSize=6;strokeWidth=1;sketch=0;" edge="1" parent="1">
          <mxGeometry relative="1" as="geometry">
            <mxPoint x="1920" y="950" as="sourcePoint" />
            <mxPoint x="2580" y="830" as="targetPoint" />
            <Array as="points">
              <mxPoint x="2270" y="960" />
            </Array>
          </mxGeometry>
        </mxCell>
      </root>
    </mxGraphModel>
  </diagram>
</mxfile>
